<svg id="visual" viewBox="0 0 900 600" width="900" height="600" xmlns="http://www.w3.org/2000/svg" xmlns:xlink="http://www.w3.org/1999/xlink" version="1.1"><path d="M435 0L424.5 12.5C414 25 393 50 395.8 75C398.7 100 425.3 125 428 150C430.7 175 409.3 200 396.8 225C384.3 250 380.7 275 376 300C371.3 325 365.7 350 371 375C376.3 400 392.7 425 408.7 450C424.7 475 440.3 500 448.2 525C456 550 456 575 456 587.5L456 600L0 600L0 587.5C0 575 0 550 0 525C0 500 0 475 0 450C0 425 0 400 0 375C0 350 0 325 0 300C0 275 0 250 0 225C0 200 0 175 0 150C0 125 0 100 0 75C0 50 0 25 0 12.5L0 0Z" fill="#bbc3e6"></path><path d="M200 0L202 12.5C204 25 208 50 220.8 75C233.7 100 255.3 125 264 150C272.7 175 268.3 200 261.7 225C255 250 246 275 242.7 300C239.3 325 241.7 350 238.5 375C235.3 400 226.7 425 219.3 450C212 475 206 500 204.3 525C202.7 550 205.3 575 206.7 587.5L208 600L0 600L0 587.5C0 575 0 550 0 525C0 500 0 475 0 450C0 425 0 400 0 375C0 350 0 325 0 300C0 275 0 250 0 225C0 200 0 175 0 150C0 125 0 100 0 75C0 50 0 25 0 12.5L0 0Z" fill="#7b84be"></path></svg>