<svg id="visual" viewBox="0 0 900 600" width="900" height="600" xmlns="http://www.w3.org/2000/svg" xmlns:xlink="http://www.w3.org/1999/xlink" version="1.1"><path d="M0 450L15 456.2C30 462.3 60 474.7 90 479.2C120 483.7 150 480.3 180 475.5C210 470.7 240 464.3 270 468.8C300 473.3 330 488.7 360 494.7C390 500.7 420 497.3 450 496.8C480 496.3 510 498.7 540 491.7C570 484.7 600 468.3 630 468.2C660 468 690 484 720 484.3C750 484.7 780 469.3 810 461.2C840 453 870 452 885 451.5L900 451L900 601L885 601C870 601 840 601 810 601C780 601 750 601 720 601C690 601 660 601 630 601C600 601 570 601 540 601C510 601 480 601 450 601C420 601 390 601 360 601C330 601 300 601 270 601C240 601 210 601 180 601C150 601 120 601 90 601C60 601 30 601 15 601L0 601Z" fill="#9fa8da" stroke-linecap="round" stroke-linejoin="miter"></path></svg>