<svg id="visual" viewBox="0 0 900 600" width="900" height="600" xmlns="http://www.w3.org/2000/svg" xmlns:xlink="http://www.w3.org/1999/xlink" version="1.1"><path d="M0 435L16.7 424.2C33.3 413.3 66.7 391.7 100 400.3C133.3 409 166.7 448 200 454.8C233.3 461.7 266.7 436.3 300 431.8C333.3 427.3 366.7 443.7 400 435.7C433.3 427.7 466.7 395.3 500 395.8C533.3 396.3 566.7 429.7 600 431C633.3 432.3 666.7 401.7 700 397.7C733.3 393.7 766.7 416.3 800 429.2C833.3 442 866.7 445 883.3 446.5L900 448L900 601L883.3 601C866.7 601 833.3 601 800 601C766.7 601 733.3 601 700 601C666.7 601 633.3 601 600 601C566.7 601 533.3 601 500 601C466.7 601 433.3 601 400 601C366.7 601 333.3 601 300 601C266.7 601 233.3 601 200 601C166.7 601 133.3 601 100 601C66.7 601 33.3 601 16.7 601L0 601Z" fill="#9fa8da" stroke-linecap="round" stroke-linejoin="miter"></path></svg>