<svg id="visual" viewBox="0 0 960 540" width="960" height="540" xmlns="http://www.w3.org/2000/svg" xmlns:xlink="http://www.w3.org/1999/xlink" version="1.1"><rect x="0" y="0" width="960" height="540" fill="#ffffff"></rect><path d="M487 0L477.7 11.3C468.3 22.7 449.7 45.3 454 67.8C458.3 90.3 485.7 112.7 494.3 135.2C503 157.7 493 180.3 473.2 202.8C453.3 225.3 423.7 247.7 428.8 270.2C434 292.7 474 315.3 492.5 337.8C511 360.3 508 382.7 493 405.2C478 427.7 451 450.3 449.3 472.8C447.7 495.3 471.3 517.7 483.2 528.8L495 540L0 540L0 528.8C0 517.7 0 495.3 0 472.8C0 450.3 0 427.7 0 405.2C0 382.7 0 360.3 0 337.8C0 315.3 0 292.7 0 270.2C0 247.7 0 225.3 0 202.8C0 180.3 0 157.7 0 135.2C0 112.7 0 90.3 0 67.8C0 45.3 0 22.7 0 11.3L0 0Z" fill="#607d8b" stroke-linecap="round" stroke-linejoin="miter"></path></svg>