<svg id="visual" viewBox="0 0 900 675" width="900" height="675" xmlns="http://www.w3.org/2000/svg" xmlns:xlink="http://www.w3.org/1999/xlink" version="1.1"><rect x="0" y="0" width="900" height="675" fill="#ffffff"></rect><path d="M0 471L21.5 465.7C43 460.3 86 449.7 128.8 457.3C171.7 465 214.3 491 257.2 507.8C300 524.7 343 532.3 385.8 526.2C428.7 520 471.3 500 514.2 501.3C557 502.7 600 525.3 642.8 526.3C685.7 527.3 728.3 506.7 771.2 506.2C814 505.7 857 525.3 878.5 535.2L900 545L900 676L878.5 676C857 676 814 676 771.2 676C728.3 676 685.7 676 642.8 676C600 676 557 676 514.2 676C471.3 676 428.7 676 385.8 676C343 676 300 676 257.2 676C214.3 676 171.7 676 128.8 676C86 676 43 676 21.5 676L0 676Z" fill="#607d8b" stroke-linecap="round" stroke-linejoin="miter"></path></svg>