<svg id="visual" viewBox="0 0 900 675" width="900" height="675" xmlns="http://www.w3.org/2000/svg" xmlns:xlink="http://www.w3.org/1999/xlink" version="1.1"><rect x="0" y="0" width="900" height="675" fill="#ffffff"></rect><path d="M0 431L21.5 424.5C43 418 86 405 128.8 414.2C171.7 423.3 214.3 454.7 257.2 474.8C300 495 343 504 385.8 496.7C428.7 489.3 471.3 465.7 514.2 467.3C557 469 600 496 642.8 497.2C685.7 498.3 728.3 473.7 771.2 473.2C814 472.7 857 496.3 878.5 508.2L900 520L900 676L878.5 676C857 676 814 676 771.2 676C728.3 676 685.7 676 642.8 676C600 676 557 676 514.2 676C471.3 676 428.7 676 385.8 676C343 676 300 676 257.2 676C214.3 676 171.7 676 128.8 676C86 676 43 676 21.5 676L0 676Z" fill="#607d8b" stroke-linecap="round" stroke-linejoin="miter"></path></svg>